<?xml version="1.0" standalone="no"?>
<!DOCTYPE svg PUBLIC "-//W3C//DTD SVG 20010904//EN"
 "http://www.w3.org/TR/2001/REC-SVG-20010904/DTD/svg10.dtd">
<svg version="1.0" xmlns="http://www.w3.org/2000/svg"
 width="400.000000pt" height="400.000000pt" viewBox="0 0 400.000000 400.000000"
 preserveAspectRatio="xMidYMid meet">
<metadata>
Created by potrace 1.11, written by Peter Selinger 2001-2013
</metadata>
<g transform="translate(0.000000,400.000000) scale(0.100000,-0.100000)"
fill="#000000" stroke="none">
<path d="M830 3996 c0 -22 34 -88 59 -115 17 -18 29 -37 26 -41 -5 -8 30 -58
50 -72 6 -5 6 -8 -2 -8 -7 0 -13 -5 -13 -11 0 -5 4 -8 9 -5 12 8 32 -18 35
-47 1 -13 12 -34 24 -47 23 -24 30 -46 12 -35 -15 9 -12 -7 5 -29 8 -11 18
-16 22 -12 4 4 1 11 -6 15 -10 7 -11 10 0 16 8 5 19 -1 31 -16 10 -13 22 -29
28 -36 5 -7 7 -19 4 -27 -3 -9 2 -17 14 -20 11 -4 44 -43 73 -88 30 -45 58
-86 64 -92 6 -6 20 -24 30 -41 11 -16 28 -36 37 -43 10 -7 18 -18 18 -23 0 -6
8 -18 18 -27 10 -10 24 -30 30 -45 12 -27 11 -28 -10 -21 -13 3 -20 3 -16 -1
4 -4 1 -14 -7 -22 -8 -8 -15 -22 -15 -32 0 -17 -128 -121 -150 -121 -12 0 -70
-60 -70 -72 0 -5 -5 -8 -11 -8 -6 0 -30 -16 -53 -35 -24 -19 -48 -35 -53 -35
-6 0 -37 -18 -69 -40 -33 -22 -65 -38 -71 -35 -7 2 -13 1 -13 -3 0 -12 -80
-53 -90 -47 -5 3 -24 -10 -42 -28 -19 -18 -39 -32 -46 -29 -7 2 -12 -3 -12
-12 0 -13 -78 -76 -95 -76 -10 0 -35 -28 -35 -39 0 -6 -8 -11 -18 -11 -10 0
-22 -4 -28 -9 -5 -5 -26 -12 -47 -15 -31 -6 -41 -3 -60 17 -37 40 -87 100 -87
105 0 14 -186 182 -202 182 -4 0 -8 5 -8 11 0 6 9 9 20 6 27 -7 27 20 0 28
-11 3 -20 11 -20 16 0 5 -6 9 -14 7 -8 -2 -28 15 -45 36 l-31 39 0 -1276 0
-1276 27 27 c15 15 28 34 28 42 0 8 13 21 30 29 16 8 35 20 41 26 7 6 48 29
92 51 45 21 81 45 82 52 0 6 8 12 19 12 30 0 41 21 26 50 -17 30 -19 125 -4
169 9 27 15 30 33 24 11 -4 47 -7 79 -7 64 2 78 9 182 96 39 32 93 69 122 82
l52 24 26 -24 c31 -29 42 -26 25 6 -8 14 -8 26 -2 32 13 13 58 5 54 -10 -2
-14 34 -16 51 -2 136 108 232 210 198 210 -4 0 -20 11 -33 25 -16 16 -32 23
-42 19 -25 -10 -75 16 -91 47 -17 33 -19 59 -5 59 6 0 1 17 -10 37 -23 43 -24
55 -9 70 16 16 60 -7 78 -40 11 -22 19 -25 47 -20 29 5 39 0 69 -30 38 -38 42
-49 21 -69 -11 -12 -10 -18 9 -42 l22 -28 59 56 c54 52 58 58 45 78 -7 12 -14
34 -15 49 -1 15 -14 40 -29 55 -15 15 -30 39 -34 53 -10 41 -58 116 -76 119
-17 3 -80 -22 -107 -43 -8 -6 -34 -17 -58 -25 -23 -7 -47 -19 -53 -27 -6 -7
-15 -13 -20 -13 -12 0 -43 -33 -47 -48 -1 -7 2 -12 7 -12 5 0 11 -9 14 -20 10
-40 -70 -56 -94 -19 l-14 21 -27 -21 c-14 -12 -31 -21 -37 -21 -7 0 -29 -9
-49 -19 l-38 -19 -23 34 c-26 37 -48 42 -115 23 -53 -15 -82 -5 -111 39 -47
71 -44 149 8 207 31 35 69 106 63 120 -3 8 -1 17 4 20 6 4 10 33 10 66 l0 59
28 -6 c15 -4 37 -14 50 -22 25 -16 85 -103 96 -140 4 -12 13 -22 21 -22 9 0
15 22 20 78 8 100 23 158 53 204 l24 36 36 -15 c67 -28 128 -61 141 -77 7 -9
11 -28 9 -43 -4 -27 -3 -28 39 -24 32 2 44 -1 49 -13 3 -9 14 -16 24 -16 11 0
22 -4 25 -10 3 -5 24 -10 45 -10 44 0 42 -4 59 105 15 93 16 127 2 167 -12 35
-14 36 -72 43 -52 6 -62 5 -74 -11 -10 -14 -25 -19 -62 -18 -26 0 -55 3 -63 6
-50 15 -61 21 -70 38 -8 15 -2 22 43 43 41 21 57 36 77 74 14 26 34 50 45 52
10 2 25 9 33 17 7 8 27 14 45 14 24 0 41 -11 77 -50 56 -61 79 -63 113 -12 14
21 38 53 54 71 39 42 57 116 49 200 -7 69 4 129 26 143 26 16 80 7 143 -22 67
-31 75 -49 32 -71 -15 -9 -17 -13 -6 -19 11 -7 11 -13 0 -34 -12 -21 -11 -27
3 -41 13 -14 16 -14 16 -2 0 18 27 30 36 16 4 -6 13 -4 24 6 17 16 20 14 44
-22 43 -62 27 -153 -26 -153 -15 0 -19 -5 -15 -20 4 -15 0 -20 -13 -20 -10 0
-22 -10 -26 -22 l-7 -22 -19 24 -19 24 6 -30 c5 -29 5 -29 -6 -4 -7 14 -11 28
-11 33 1 4 -7 7 -19 7 -13 0 -18 -4 -13 -12 5 -8 2 -9 -9 -5 -13 5 -17 1 -17
-14 0 -11 -13 -34 -30 -52 -16 -18 -30 -39 -30 -47 0 -17 -24 -89 -40 -120 -5
-11 -14 -29 -20 -40 -5 -11 -10 -33 -10 -50 0 -18 -6 -33 -15 -36 -10 -4 -15
-21 -15 -53 0 -26 -6 -53 -12 -60 -11 -11 -10 -12 1 -6 11 6 13 4 8 -10 -4
-10 -3 -32 2 -49 16 -52 34 -137 42 -201 13 -94 20 -125 32 -125 6 0 7 -3 4
-6 -3 -4 -2 -15 3 -25 6 -11 7 -27 1 -43 -7 -18 -6 -28 5 -36 7 -7 14 -18 14
-24 0 -6 6 -23 14 -38 9 -17 11 -29 4 -36 -7 -7 -5 -18 6 -33 9 -13 16 -40 16
-61 0 -21 4 -38 9 -38 5 0 17 -20 28 -45 10 -25 21 -45 26 -45 12 0 8 -27 -7
-40 -8 -6 -13 -17 -10 -25 3 -7 0 -16 -7 -21 -7 -4 -15 -2 -17 4 -4 13 -32 17
-32 4 0 -4 7 -18 16 -30 14 -21 14 -22 -5 -22 -14 0 -19 -5 -15 -15 8 -21 -15
-47 -36 -40 -10 3 -23 -2 -31 -12 -12 -15 -12 -16 4 -10 24 9 22 -5 -3 -21
-24 -15 -18 -32 12 -32 11 0 22 8 25 19 3 11 17 21 35 25 21 4 29 10 24 21 -3
9 0 15 8 15 8 0 35 22 61 49 28 29 53 47 61 44 19 -7 17 -33 -3 -49 -16 -12
-15 -13 10 -14 33 0 36 -16 5 -22 -35 -6 -60 2 -54 17 3 9 0 12 -8 9 -8 -3
-13 -13 -12 -22 0 -9 -6 -17 -14 -18 -35 -3 -40 -4 -40 -14 0 -5 10 -11 23
-11 16 -1 18 -2 5 -6 -10 -2 -18 -11 -18 -19 0 -11 6 -13 20 -9 23 7 28 -10 5
-19 -8 -3 -15 -12 -15 -20 0 -13 4 -14 25 -4 14 6 25 15 25 20 0 4 5 8 11 8 8
0 9 -4 0 -13 -13 -16 -5 -27 21 -27 10 0 18 -4 18 -10 0 -5 -4 -10 -10 -10 -5
0 -10 -4 -10 -10 0 -5 7 -10 16 -10 13 0 14 -3 5 -14 -15 -17 -4 -46 15 -39 8
3 14 1 14 -5 0 -5 -9 -12 -21 -15 -21 -6 -30 9 -45 69 -8 30 -16 35 -34 23
-13 -8 -12 -11 3 -23 17 -14 24 -32 8 -21 -5 3 -12 1 -16 -5 -4 -6 5 -10 19
-10 31 0 33 -11 5 -28 -18 -11 -23 -11 -34 5 -11 14 -16 16 -26 5 -7 -6 -24
-12 -38 -12 -15 0 -33 -5 -41 -10 -16 -10 -14 -10 112 -14 32 0 58 -2 58 -4 0
-1 -17 -21 -38 -43 -27 -27 -44 -38 -55 -33 -20 7 -22 24 -3 24 7 0 20 7 27
16 12 15 11 16 -11 9 -23 -7 -49 -31 -50 -46 0 -4 -10 -9 -22 -13 -16 -4 -20
-8 -12 -16 8 -8 19 -7 38 1 17 8 30 9 34 3 4 -5 29 -10 56 -11 56 -2 80 -17
45 -28 -16 -5 -26 -2 -35 10 -13 17 -14 17 -20 1 -5 -12 -16 -17 -38 -15 -51
3 -66 0 -66 -15 0 -11 13 -15 51 -14 55 0 85 -15 51 -26 -12 -4 -30 -1 -41 6
-23 14 -51 4 -59 -22 -3 -9 3 -11 22 -8 15 3 29 1 32 -3 3 -5 0 -10 -5 -10 -6
-1 -15 -3 -21 -4 -5 -1 -14 -3 -20 -4 -5 0 -10 -5 -10 -10 0 -4 48 -8 108 -8
176 0 175 0 169 -23 -3 -11 -1 -18 4 -14 5 3 9 12 9 20 0 8 10 14 26 14 14 0
39 11 56 25 16 13 47 29 68 35 22 6 42 15 45 20 3 5 43 28 88 51 45 22 89 47
97 54 8 8 26 18 40 24 14 6 48 24 75 41 28 16 70 39 95 50 41 19 63 27 165 60
36 11 136 25 150 21 22 -6 96 -12 200 -16 66 -2 126 -10 150 -19 35 -13 37
-15 13 -16 -15 0 -29 -4 -32 -8 -7 -12 56 -101 72 -102 7 0 16 -8 19 -17 4
-10 17 -29 29 -43 12 -14 48 -56 79 -95 32 -38 61 -69 65 -68 5 1 15 -16 24
-38 30 -74 96 -123 153 -113 76 13 103 41 103 105 0 19 13 38 43 64 23 20 54
47 70 61 15 13 27 30 27 39 0 8 13 24 30 37 16 12 32 29 35 39 4 10 21 19 45
23 25 4 55 20 84 45 25 21 60 41 80 45 l36 7 -1 552 c-1 304 -4 541 -6 528 -5
-26 -27 -53 -36 -45 -9 10 20 83 38 96 5 4 0 8 -12 8 -28 0 -30 16 -4 23 16 4
19 15 20 86 l1 81 -26 0 c-21 0 -25 -4 -21 -20 3 -11 2 -20 -2 -20 -5 0 -24
-16 -44 -35 -31 -30 -36 -41 -33 -68 3 -18 5 -36 5 -41 1 -4 10 -6 21 -3 19 5
20 1 18 -44 -2 -27 -6 -49 -10 -49 -12 0 -4 -163 8 -167 6 -2 14 5 17 17 3 11
12 20 20 20 12 0 15 -9 12 -41 -2 -22 -8 -46 -14 -53 -12 -14 -8 -317 4 -337
12 -18 14 -118 4 -125 -5 -3 -9 -14 -9 -24 0 -23 -50 -99 -65 -100 -6 0 -22
-21 -35 -46 -14 -25 -33 -50 -43 -55 -10 -6 -15 -15 -11 -21 4 -5 3 -13 -2
-17 -18 -12 -44 -61 -44 -82 0 -12 -8 -23 -20 -26 -15 -4 -18 -11 -14 -37 4
-24 3 -27 -5 -15 -7 10 -19 15 -34 12 -18 -4 -26 2 -35 22 -9 20 -18 26 -33
22 -36 -9 -59 84 -36 146 4 9 10 25 14 35 3 9 8 37 10 62 2 25 8 61 13 80 5
19 11 55 15 80 3 25 11 55 17 67 7 15 7 30 0 52 -6 18 -7 33 -2 36 5 3 7 12 4
20 -4 8 -1 28 4 45 9 26 9 30 -6 30 -9 0 -27 -16 -40 -35 -12 -19 -27 -35 -32
-35 -5 0 -7 -7 -4 -15 4 -8 2 -15 -4 -15 -6 0 -12 6 -15 13 -8 26 -52 -14 -79
-71 -20 -44 -24 -62 -16 -77 6 -11 7 -17 3 -13 -9 8 -22 -4 -62 -59 -17 -23
-33 -40 -36 -37 -2 3 -15 -11 -27 -31 -28 -46 -80 -74 -80 -44 0 6 7 8 16 5
12 -5 15 -2 10 11 -4 10 -4 14 0 11 7 -8 53 53 47 64 -4 7 -59 -18 -83 -37
-20 -17 -120 -30 -120 -17 0 6 8 13 18 15 9 3 -2 5 -25 6 -48 1 -57 15 -18 25
15 4 23 11 19 17 -7 13 18 32 105 79 35 19 66 41 69 48 2 7 -2 10 -12 6 -26
-10 -18 4 12 20 35 19 125 103 147 139 15 23 18 57 19 220 2 180 4 195 26 240
13 26 29 46 35 43 17 -6 60 30 46 38 -15 9 -14 22 2 38 7 7 18 22 25 33 11 19
11 19 12 -3 0 -28 23 -25 28 4 9 50 24 95 30 89 4 -4 7 -29 8 -56 0 -27 5 -54
10 -59 7 -7 10 0 7 22 -3 30 -2 31 7 9 8 -19 13 -21 25 -11 17 14 21 55 4 44
-6 -3 -15 -1 -19 6 -11 17 0 50 16 50 8 0 14 6 14 14 0 8 3 21 6 29 3 10 -3
17 -19 21 -14 3 -27 15 -30 26 -3 13 -11 18 -20 14 -10 -3 -18 5 -26 27 -8 25
-15 30 -31 26 -23 -6 -40 17 -40 55 -1 21 -2 22 -14 5 -12 -16 -14 -14 -20 18
-10 50 2 125 25 157 10 15 19 31 19 35 0 5 9 15 19 23 11 7 18 17 15 22 -3 4
9 22 26 39 17 18 29 38 26 45 -3 9 0 11 11 7 13 -5 15 -2 10 11 -5 13 11 35
62 84 39 37 71 74 72 82 4 35 -1 38 -42 33 -61 -9 -47 14 37 61 38 21 71 42
74 46 6 8 46 30 55 30 12 0 0 -55 -12 -56 -7 -1 -17 -2 -23 -3 -5 0 -10 -6
-10 -12 0 -6 8 -8 18 -5 9 3 32 7 50 8 l32 2 0 558 0 558 -311 0 -311 0 -44
-36 c-35 -29 -45 -33 -50 -21 -8 21 -68 15 -95 -9 -12 -10 -27 -30 -34 -44 -7
-14 -34 -40 -59 -59 -35 -27 -57 -35 -92 -37 -30 -1 -50 -7 -55 -17 -12 -21
-85 -57 -116 -57 -30 0 -88 -34 -97 -56 -5 -13 -9 -14 -21 -4 -12 10 -14 35
-10 140 4 79 2 131 -4 134 -10 7 -151 -79 -184 -111 -10 -10 -29 -17 -42 -15
-13 2 -26 -2 -30 -8 -3 -5 -11 -7 -17 -4 -6 4 -17 -1 -25 -11 -7 -11 -13 -13
-13 -7 0 7 -10 22 -22 34 l-22 22 28 12 c18 7 24 14 17 18 -6 4 -11 15 -11 24
0 9 -15 38 -33 63 l-32 46 -83 2 c-47 1 -82 -2 -82 -7 0 -5 8 -9 17 -8 13 1
17 -8 18 -34 1 -24 6 -34 15 -32 11 3 11 0 0 -12 -14 -18 -40 -21 -40 -5 0 5
-5 7 -10 4 -13 -8 -113 40 -136 66 -25 28 -82 25 -124 -6 -44 -32 -57 -32 -78
5 l-17 30 -97 0 c-88 0 -98 -2 -98 -18 0 -25 19 -42 48 -42 13 0 20 -4 17 -10
-3 -5 -1 -10 4 -10 6 0 11 6 11 13 0 6 7 3 16 -8 8 -11 21 -28 28 -37 33 -39
36 -54 17 -95 -18 -36 -32 -145 -58 -455 -3 -32 -8 -58 -12 -58 -5 0 -29 -16
-54 -35 -44 -34 -77 -45 -77 -26 0 5 -6 16 -13 23 -7 7 -28 35 -47 63 -19 27
-41 56 -47 63 -7 7 -13 17 -13 22 0 4 -16 28 -36 52 -43 50 -117 161 -135 201
-7 15 -16 27 -21 27 -4 0 -8 9 -8 19 0 11 -4 23 -10 26 -5 3 -10 13 -10 22 0
11 -73 119 -128 188 -4 6 -18 25 -30 43 l-23 32 -95 0 c-52 0 -94 -2 -94 -4z
m1615 -294 c20 -14 95 -121 95 -135 0 -8 -9 -17 -19 -20 -24 -6 -81 28 -81 48
0 9 -7 18 -15 21 -16 6 -31 66 -20 83 7 13 25 14 40 3z m1520 -682 c-3 -5 -21
-10 -38 -9 -27 0 -29 2 -12 9 28 12 57 12 50 0z m-107 -28 c-10 -2 -18 -8 -18
-14 0 -6 -2 -9 -5 -6 -12 12 7 37 23 30 16 -6 15 -7 0 -10z m-2071 -598 c3 -8
1 -20 -6 -27 -15 -15 -26 -1 -12 17 9 11 9 15 -1 19 -10 4 -10 6 0 6 7 1 15
-6 19 -15z m-220 -46 c-3 -8 -6 -5 -6 6 -1 11 2 17 5 13 3 -3 4 -12 1 -19z
m-1410 -204 c3 -9 15 -20 27 -24 19 -8 20 -9 2 -9 -11 -1 -31 9 -44 22 -22 19
-24 20 -18 3 5 -16 4 -17 -9 -6 -21 18 -19 25 10 28 16 1 28 -4 32 -14z m3526
-44 c3 -11 1 -20 -4 -20 -5 0 -9 9 -9 20 0 11 2 20 4 20 2 0 6 -9 9 -20z
m-3505 -29 c9 -6 30 -12 45 -16 22 -4 28 -11 25 -28 -1 -12 1 -28 6 -35 5 -8
4 -18 -1 -23 -9 -9 -18 -1 -77 71 -31 39 -31 48 2 31z m1825 -45 c4 -10 0 -12
-14 -9 -10 3 -19 1 -19 -4 0 -5 -11 -15 -25 -21 -30 -14 -32 -3 -5 26 23 25
55 29 63 8z m-23 -60 c0 -2 -7 -7 -16 -10 -8 -3 -12 -2 -9 4 6 10 25 14 25 6z
m1997 -52 c-3 -3 -12 -4 -19 -1 -8 3 -5 6 6 6 11 1 17 -2 13 -5z m-4 -245 c-7
-26 -22 -34 -29 -15 -8 20 16 63 26 46 4 -7 5 -21 3 -31z m-2995 -138 c-12
-11 -27 -17 -32 -14 -4 3 -2 9 5 14 11 7 11 9 1 9 -19 0 -4 20 22 29 30 12 34
-15 4 -38z m122 34 c0 -8 -7 -15 -15 -15 -16 0 -20 12 -8 23 11 12 23 8 23 -8z
m-752 -27 c7 -7 12 -22 12 -34 0 -13 5 -26 10 -29 6 -3 10 -14 10 -23 0 -10
-8 -3 -17 16 -9 18 -22 31 -28 28 -21 -7 -35 15 -24 36 11 21 20 23 37 6z
m592 -42 c0 -3 -4 -8 -10 -11 -5 -3 -10 -1 -10 4 0 6 5 11 10 11 6 0 10 -2 10
-4z m-576 -66 c10 -13 9 -13 -6 -1 -10 7 -18 21 -17 30 0 13 1 14 6 1 3 -8 11
-22 17 -30z m460 -32 c14 -6 33 -22 41 -35 12 -17 22 -22 36 -18 42 14 127
-71 99 -99 -5 -5 -2 -23 8 -43 14 -30 14 -35 2 -43 -22 -14 -25 -13 -61 17
-22 19 -41 27 -61 24 -47 -4 -118 87 -77 101 6 2 5 14 -5 33 -15 28 -22 75
-11 75 2 0 15 -5 29 -12z m-151 -89 c12 -7 26 -18 30 -25 4 -8 16 -14 25 -14
47 0 125 -83 101 -107 -6 -6 -5 -14 6 -23 8 -7 15 -23 15 -36 0 -31 -28 -32
-66 -2 -16 13 -39 21 -54 20 -17 -2 -33 6 -51 25 -28 30 -43 70 -27 75 5 2 2
20 -7 41 -14 34 -13 57 1 57 3 0 15 -5 27 -11z m-135 -94 c17 -14 37 -25 46
-25 8 0 32 -14 52 -32 29 -26 35 -37 30 -59 -3 -17 0 -32 9 -39 8 -7 15 -21
15 -32 0 -15 -4 -18 -22 -12 -13 4 -32 13 -43 20 -11 8 -31 14 -46 14 -48 0
-110 76 -79 95 7 4 5 14 -5 28 -19 27 -20 67 -1 67 8 0 28 -11 44 -25z m-148
-82 c11 -14 28 -27 38 -28 54 -5 99 -48 87 -84 -3 -10 1 -24 10 -31 34 -28 -2
-43 -40 -17 -11 8 -30 16 -42 19 -19 5 -21 3 -13 -12 16 -29 12 -35 -10 -15
-11 10 -20 24 -20 30 0 7 -14 42 -31 79 -28 60 -31 86 -9 86 5 0 18 -12 30
-27z m-140 -153 c0 -5 -2 -10 -4 -10 -3 0 -8 5 -11 10 -3 6 -1 10 4 10 6 0 11
-4 11 -10z m1470 6 c0 -2 -9 -6 -20 -9 -11 -3 -20 -1 -20 4 0 5 9 9 20 9 11 0
20 -2 20 -4z m1377 -12 c-3 -3 -12 -4 -19 -1 -8 3 -5 6 6 6 11 1 17 -2 13 -5z
m112 -38 c-2 -3 -29 -8 -58 -12 -44 -6 -53 -4 -49 7 5 16 87 29 102 17 5 -4 8
-10 5 -12z m-1484 -6 c-10 -11 -22 -17 -26 -14 -15 9 -10 22 9 27 33 9 35 7
17 -13z m70 0 c-3 -5 -10 -10 -16 -10 -5 0 -9 5 -9 10 0 6 7 10 16 10 8 0 12
-4 9 -10z m-175 -40 c0 -5 -2 -10 -4 -10 -2 0 -11 -2 -19 -5 -8 -4 -14 0 -14
10 0 8 9 15 19 15 10 0 18 -4 18 -10z m1620 0 c0 -5 -4 -10 -10 -10 -5 0 -10
5 -10 10 0 6 5 10 10 10 6 0 10 -4 10 -10z m-1490 -4 c0 -2 -7 -7 -16 -10 -8
-3 -12 -2 -9 4 6 10 25 14 25 6z m-37 -86 c21 0 21 -1 -3 -13 -20 -11 -26 -11
-28 0 -2 7 -7 13 -12 13 -5 0 -7 7 -3 16 5 15 7 15 15 0 5 -9 19 -16 31 -16z
m32 -110 c-3 -5 -13 -10 -21 -10 -8 0 -14 5 -14 10 0 6 9 10 21 10 11 0 17 -4
14 -10z m66 -5 c-1 -15 -24 -12 -29 3 -3 9 2 13 12 10 10 -1 17 -7 17 -13z
m-111 -35 c0 -9 -31 -30 -44 -30 -3 0 -6 9 -6 20 0 15 7 20 25 20 14 0 25 -4
25 -10z m70 -13 c0 -18 -36 -19 -51 -1 -9 12 -6 14 20 14 19 0 31 -5 31 -13z
m55 -17 c3 -5 -1 -10 -9 -10 -9 0 -16 5 -16 10 0 6 4 10 9 10 6 0 13 -4 16
-10z m-195 -25 c0 -2 -9 -9 -20 -15 -16 -9 -20 -8 -20 5 0 8 9 15 20 15 11 0
20 -2 20 -5z m80 -6 c0 -6 -25 -19 -36 -19 -2 0 -4 6 -4 13 0 7 9 13 20 13 11
0 20 -3 20 -7z m20 -53 c0 -8 -4 -17 -9 -21 -12 -7 -24 12 -16 25 9 15 25 12
25 -4z m-40 -11 c0 -8 -2 -15 -4 -15 -2 0 -6 7 -10 15 -3 8 -1 15 4 15 6 0 10
-7 10 -15z m105 -5 c-3 -5 -12 -10 -20 -10 -8 0 -17 5 -20 10 -4 6 5 10 20 10
15 0 24 -4 20 -10z m-149 -75 c23 -12 25 -15 11 -21 -17 -6 -47 11 -47 27 0
12 3 11 36 -6z"/>
<path d="M880 1276 c0 -8 7 -17 16 -20 28 -11 35 -7 24 14 -12 23 -40 27 -40
6z"/>
<path d="M720 1196 c0 -14 29 -31 38 -21 6 6 -18 35 -29 35 -5 0 -9 -6 -9 -14z"/>
<path d="M562 1118 c3 -7 13 -15 22 -16 12 -3 17 1 14 10 -3 7 -13 15 -22 16
-12 3 -17 -1 -14 -10z"/>
<path d="M420 1045 c0 -16 27 -32 37 -21 7 7 -16 36 -28 36 -5 0 -9 -7 -9 -15z"/>
<path d="M2670 3990 c0 -6 4 -9 9 -5 5 3 12 -2 14 -10 4 -12 5 -12 3 1 -1 19
-26 32 -26 14z"/>
<path d="M1676 3895 c4 -8 7 -15 9 -15 2 0 5 7 9 15 3 9 0 15 -9 15 -9 0 -12
-6 -9 -15z"/>
<path d="M960 3710 c0 -5 5 -10 11 -10 5 0 7 5 4 10 -3 6 -8 10 -11 10 -2 0
-4 -4 -4 -10z"/>
<path d="M245 3440 c-6 -10 31 -49 48 -50 16 0 2 33 -20 47 -14 10 -23 11 -28
3z"/>
<path d="M320 3390 c0 -5 -7 -10 -15 -10 -17 0 -20 -16 -6 -25 5 -3 12 -19 16
-35 4 -17 13 -30 21 -30 13 0 18 -11 15 -36 -1 -7 10 -15 24 -18 16 -4 25 -13
25 -27 0 -11 -5 -17 -10 -14 -6 4 -8 11 -5 16 4 5 -1 9 -10 9 -14 0 -13 -3 2
-27 10 -16 26 -37 35 -47 10 -11 18 -24 18 -29 0 -5 10 -21 21 -35 l21 -27 -7
25 c-4 14 -13 28 -19 32 -6 4 -1 6 11 6 14 -2 19 -7 16 -18 -3 -10 -1 -9 7 3
9 14 7 25 -11 55 -13 20 -27 39 -31 40 -4 2 -8 10 -8 18 0 8 -4 14 -10 14 -5
0 -12 11 -16 25 -3 14 -10 25 -16 25 -5 0 -6 5 -3 10 11 18 -6 32 -22 18 -14
-11 -15 -9 -9 20 7 31 1 38 -27 33 -5 -1 -6 8 -2 19 3 11 4 20 1 20 -3 0 -6
-4 -6 -10z m7 -62 c-3 -8 -6 -5 -6 6 -1 11 2 17 5 13 3 -3 4 -12 1 -19z"/>
<path d="M579 2939 c4 -20 14 -35 24 -37 23 -5 21 7 -7 42 l-24 29 7 -34z"/>
<path d="M3980 2855 c0 -8 5 -15 10 -15 6 0 10 7 10 15 0 8 -4 15 -10 15 -5 0
-10 -7 -10 -15z"/>
<path d="M646 2844 c-9 -23 -7 -31 4 -14 5 8 12 11 16 7 4 -3 2 -12 -4 -19
-10 -13 6 -48 22 -48 11 0 6 55 -8 73 -16 21 -22 21 -30 1z"/>
<path d="M655 2750 c3 -5 8 -10 11 -10 2 0 4 5 4 10 0 6 -5 10 -11 10 -5 0 -7
-4 -4 -10z"/>
<path d="M1561 2544 c0 -11 3 -14 6 -6 3 7 2 16 -1 19 -3 4 -6 -2 -5 -13z"/>
<path d="M3980 2510 c-8 -5 -11 -12 -8 -16 4 -4 3 -15 -3 -25 -7 -15 -6 -19 6
-19 18 0 28 20 23 49 -2 15 -7 18 -18 11z"/>
<path d="M1565 2480 c9 -30 13 -35 21 -27 3 3 -2 16 -11 29 l-17 23 7 -25z"/>
<path d="M3600 2330 c0 -5 5 -10 11 -10 5 0 7 5 4 10 -3 6 -8 10 -11 10 -2 0
-4 -4 -4 -10z"/>
<path d="M1200 2220 c0 -14 5 -32 10 -40 8 -12 10 -10 10 10 0 14 -5 32 -10
40 -8 12 -10 10 -10 -10z"/>
<path d="M3708 2003 c6 -2 18 -2 25 0 6 3 1 5 -13 5 -14 0 -19 -2 -12 -5z"/>
<path d="M3580 1901 c0 -6 5 -13 10 -16 6 -3 10 1 10 9 0 9 -4 16 -10 16 -5 0
-10 -4 -10 -9z"/>
<path d="M3652 1705 c-11 -14 -25 -25 -31 -25 -17 0 -13 -41 6 -62 15 -17 15
-18 -11 -18 l-28 0 30 -25 c34 -28 68 -32 98 -10 18 12 21 22 17 67 -7 88 -11
98 -37 98 -14 0 -33 -11 -44 -25z"/>
<path d="M3770 1695 c-10 -12 -10 -15 4 -15 9 0 16 7 16 15 0 8 -2 15 -4 15
-2 0 -9 -7 -16 -15z"/>
<path d="M3798 1673 c-18 -42 -21 -55 -19 -95 0 -16 7 -28 14 -28 22 1 77 58
71 75 -9 23 -26 18 -19 -6 5 -15 4 -19 -4 -15 -6 4 -11 29 -11 57 0 27 -4 49
-8 49 -5 0 -15 -17 -24 -37z"/>
<path d="M3920 1544 c0 -8 5 -12 10 -9 6 4 8 11 5 16 -9 14 -15 11 -15 -7z"/>
<path d="M3680 1490 c0 -5 7 -10 15 -10 8 0 15 5 15 10 0 6 -7 10 -15 10 -8 0
-15 -4 -15 -10z"/>
<path d="M1060 1366 c0 -15 37 -32 47 -22 9 8 -17 36 -33 36 -8 0 -14 -6 -14
-14z"/>
<path d="M1342 1208 c6 -16 15 -28 20 -28 4 0 8 -5 8 -11 0 -5 -4 -7 -10 -4
-5 3 -10 2 -10 -4 0 -5 5 -13 11 -16 6 -4 8 -13 5 -21 -7 -18 8 -18 23 0 8 10
9 16 1 21 -6 3 -8 10 -6 14 3 4 -8 23 -24 42 -28 32 -29 32 -18 7z"/>
<path d="M1400 1200 c-12 -8 -12 -10 -1 -10 7 0 11 -6 7 -15 -3 -8 -1 -15 4
-15 14 0 18 13 11 32 -4 13 -10 15 -21 8z"/>
<path d="M1456 1143 c-11 -11 -6 -23 9 -23 8 0 15 4 15 9 0 13 -16 22 -24 14z"/>
<path d="M1444 1096 c-10 -8 -15 -18 -11 -22 4 -4 15 0 24 9 22 21 12 31 -13
13z"/>
<path d="M1497 1099 c-9 -6 -17 -14 -17 -19 0 -17 27 -11 34 6 8 22 5 25 -17
13z"/>
<path d="M1446 1054 c-17 -12 -17 -14 -4 -14 9 0 20 5 23 11 11 17 2 18 -19 3z"/>
<path d="M1300 1040 c0 -5 5 -10 10 -10 6 0 10 5 10 10 0 6 -4 10 -10 10 -5 0
-10 -4 -10 -10z"/>
<path d="M1396 1015 c-4 -12 -1 -16 11 -13 18 3 21 20 5 26 -5 1 -12 -4 -16
-13z"/>
<path d="M1440 1014 c0 -3 7 -12 15 -20 13 -14 15 -13 15 5 0 12 -6 21 -15 21
-8 0 -15 -3 -15 -6z"/>
<path d="M1207 993 c-4 -3 -7 -11 -7 -17 0 -6 5 -5 12 2 6 6 9 14 7 17 -3 3
-9 2 -12 -2z"/>
<path d="M1250 990 c0 -5 5 -10 10 -10 6 0 10 5 10 10 0 6 -4 10 -10 10 -5 0
-10 -4 -10 -10z"/>
<path d="M1351 966 c-7 -8 -8 -17 -3 -20 6 -3 13 1 16 10 9 23 2 28 -13 10z"/>
<path d="M1247 959 c7 -7 15 -10 18 -7 3 3 -2 9 -12 12 -14 6 -15 5 -6 -5z"/>
<path d="M1450 950 c0 -5 7 -10 16 -10 8 0 12 5 9 10 -3 6 -10 10 -16 10 -5 0
-9 -4 -9 -10z"/>
<path d="M1150 935 c-14 -16 -10 -18 14 -9 9 3 16 10 16 15 0 14 -16 11 -30
-6z"/>
<path d="M686 873 c-12 -12 -5 -23 14 -23 11 0 20 4 20 9 0 11 -26 22 -34 14z"/>
<path d="M1485 860 c3 -5 10 -10 16 -10 5 0 9 5 9 10 0 6 -7 10 -16 10 -8 0
-12 -4 -9 -10z"/>
<path d="M1505 829 c-4 -6 -5 -13 -2 -16 7 -7 27 6 27 18 0 12 -17 12 -25 -2z"/>
<path d="M1363 798 c2 -7 10 -13 17 -13 7 0 15 6 18 13 2 7 -5 12 -18 12 -13
0 -20 -5 -17 -12z"/>
<path d="M1109 773 c-13 -16 -12 -17 4 -4 9 7 17 15 17 17 0 8 -8 3 -21 -13z"/>
<path d="M1452 763 c-16 -16 -16 -31 0 -15 16 16 28 15 28 -3 0 -8 -9 -15 -20
-15 -11 0 -20 -4 -20 -10 0 -13 27 -13 35 0 4 6 21 8 41 4 29 -5 34 -3 34 12
0 11 -4 24 -8 31 -9 15 -75 13 -90 -4z"/>
<path d="M1386 762 c-3 -6 -1 -14 5 -17 15 -10 25 3 12 16 -7 7 -13 7 -17 1z"/>
<path d="M1316 753 c-3 -4 -6 -15 -6 -25 0 -21 44 -26 56 -6 4 7 3 8 -4 4 -7
-4 -12 -1 -12 7 0 16 -24 30 -34 20z"/>
<path d="M915 740 c-3 -5 1 -10 9 -10 9 0 16 5 16 10 0 6 -4 10 -9 10 -6 0
-13 -4 -16 -10z"/>
<path d="M1255 739 c-4 -6 -4 -13 -1 -16 8 -8 36 5 36 17 0 13 -27 13 -35 -1z"/>
<path d="M2960 714 c0 -8 5 -12 10 -9 6 4 8 11 5 16 -9 14 -15 11 -15 -7z"/>
<path d="M1398 713 c7 -3 16 -2 19 1 4 3 -2 6 -13 5 -11 0 -14 -3 -6 -6z"/>
<path d="M1390 670 c0 -5 7 -10 15 -10 8 0 15 5 15 10 0 6 -7 10 -15 10 -8 0
-15 -4 -15 -10z"/>
<path d="M1345 660 c-3 -5 -1 -10 4 -10 6 0 11 5 11 10 0 6 -2 10 -4 10 -3 0
-8 -4 -11 -10z"/>
<path d="M1476 635 c-23 -17 -13 -34 11 -19 19 12 29 34 16 34 -4 0 -17 -7
-27 -15z"/>
<path d="M1400 620 c0 -13 11 -13 30 0 12 8 11 10 -7 10 -13 0 -23 -4 -23 -10z"/>
<path d="M1348 576 c-24 -18 -22 -28 4 -24 13 2 24 11 26 21 4 20 -6 21 -30 3z"/>
<path d="M1414 576 c-10 -8 -16 -17 -12 -21 11 -11 48 5 48 21 0 18 -11 18
-36 0z"/>
<path d="M1280 560 c0 -5 5 -10 10 -10 6 0 10 5 10 10 0 6 -4 10 -10 10 -5 0
-10 -4 -10 -10z"/>
<path d="M1376 532 c-4 -7 -18 -12 -32 -12 -29 0 -32 -16 -4 -23 24 -6 54 15
48 33 -3 11 -6 11 -12 2z"/>
<path d="M1415 510 c-3 -5 3 -10 14 -10 11 0 23 5 26 10 3 6 -3 10 -14 10 -11
0 -23 -4 -26 -10z"/>
<path d="M1285 500 c-3 -5 -2 -10 4 -10 5 0 13 5 16 10 3 6 2 10 -4 10 -5 0
-13 -4 -16 -10z"/>
<path d="M1316 475 c-3 -8 -1 -15 3 -15 5 0 11 7 15 15 3 8 1 15 -3 15 -5 0
-11 -7 -15 -15z"/>
<path d="M1361 469 c-17 -7 -21 -13 -14 -20 12 -12 53 5 53 21 0 12 -7 12 -39
-1z"/>
<path d="M1433 468 c-30 -15 -29 -28 2 -28 14 0 29 8 35 20 12 23 0 26 -37 8z"/>
<path d="M1434 415 c-10 -8 -14 -14 -9 -15 15 0 40 18 34 24 -3 3 -14 -1 -25
-9z"/>
<path d="M66 381 c5 -5 27 -14 49 -21 22 -7 43 -17 46 -23 7 -10 29 -1 29 13
0 4 -21 15 -47 24 -51 18 -93 21 -77 7z"/>
<path d="M1165 380 c-3 -5 -2 -10 4 -10 5 0 13 5 16 10 3 6 2 10 -4 10 -5 0
-13 -4 -16 -10z"/>
<path d="M1095 370 c-3 -5 -1 -10 4 -10 6 0 11 5 11 10 0 6 -2 10 -4 10 -3 0
-8 -4 -11 -10z"/>
<path d="M1672 371 c-13 -3 -22 -10 -20 -16 3 -11 38 -9 51 4 13 13 -4 19 -31
12z"/>
<path d="M1372 354 c-20 -10 -21 -12 -6 -18 18 -7 39 6 33 21 -2 5 -14 4 -27
-3z"/>
<path d="M1427 356 c-11 -9 -14 -17 -8 -21 13 -7 51 12 51 25 0 14 -22 12 -43
-4z"/>
<path d="M1493 357 c-3 -5 -1 -13 5 -19 12 -12 56 8 47 22 -7 11 -45 9 -52 -3z"/>
<path d="M1580 360 c-22 -6 -23 -8 -7 -15 20 -8 47 0 47 15 0 11 -4 11 -40 0z"/>
<path d="M970 344 c0 -8 5 -12 10 -9 6 3 10 10 10 16 0 5 -4 9 -10 9 -5 0 -10
-7 -10 -16z"/>
<path d="M17 343 c-4 -3 -7 -10 -7 -14 0 -8 121 -51 128 -45 7 8 -8 26 -21 26
-7 0 -30 9 -52 20 -46 23 -40 22 -48 13z"/>
<path d="M1523 299 c-24 -9 -31 -29 -10 -29 19 0 40 16 36 28 -3 6 -13 6 -26
1z"/>
<path d="M1590 300 c-12 -8 -11 -10 8 -10 12 0 22 5 22 10 0 13 -11 13 -30 0z"/>
<path d="M1361 289 c-19 -8 -21 -12 -11 -24 11 -14 15 -14 31 1 33 30 24 41
-20 23z"/>
<path d="M1439 284 c-11 -14 -10 -15 11 -12 13 1 25 9 28 16 5 17 -23 15 -39
-4z"/>
<path d="M1300 280 c-8 -5 -11 -12 -7 -16 4 -4 13 -2 19 4 15 15 7 24 -12 12z"/>
<path d="M1215 270 c-3 -5 1 -10 9 -10 8 0 18 5 21 10 3 6 -1 10 -9 10 -8 0
-18 -4 -21 -10z"/>
<path d="M940 235 c7 -8 16 -15 21 -15 5 0 6 7 3 15 -4 8 -13 15 -21 15 -13 0
-13 -3 -3 -15z"/>
<path d="M1020 240 c0 -5 7 -10 15 -10 8 0 15 5 15 10 0 6 -7 10 -15 10 -8 0
-15 -4 -15 -10z"/>
<path d="M1316 235 c-11 -8 -28 -15 -38 -15 -25 0 -23 -17 3 -25 14 -5 28 0
45 16 37 35 29 54 -10 24z"/>
<path d="M1370 220 c-12 -8 -11 -10 8 -10 12 0 22 5 22 10 0 13 -11 13 -30 0z"/>
<path d="M0 100 c0 -90 2 -100 18 -100 19 0 63 43 95 92 l17 27 -55 41 c-30
22 -59 40 -65 40 -6 0 -10 -37 -10 -100z"/>
<path d="M906 175 c-11 -8 -16 -15 -10 -15 5 0 18 7 28 15 11 8 16 15 10 15
-5 0 -18 -7 -28 -15z"/>
<path d="M1255 170 c-3 -5 -1 -10 4 -10 6 0 11 5 11 10 0 6 -2 10 -4 10 -3 0
-8 -4 -11 -10z"/>
<path d="M1215 151 c-3 -5 -1 -12 5 -16 5 -3 10 1 10 9 0 18 -6 21 -15 7z"/>
<path d="M3970 30 l-25 -25 23 -3 c30 -4 34 0 30 30 l-3 23 -25 -25z"/>
</g>
</svg>
